<svg width="88" height="34" viewBox="0 0 88 34" fill="none" xmlns="http://www.w3.org/2000/svg">
<g filter="url(#filter0_d_328_149)">
<mask id="path-1-outside-1_328_149" maskUnits="userSpaceOnUse" x="0" y="0" width="86" height="32" fill="black">
<rect fill="white" width="86" height="32"/>
<path d="M5.16 30.04C2.68 30.04 1.72 28.2 1.72 24.84V8.2C1.72 3.56 4.2 1.6 7.4 1.6C10.52 1.6 13 3.56 13 7.6V9.56C13 11.4 12.12 12.28 10.6 12.28C9.04 12.28 8.16 11.4 8.16 9.56V6.64C8.16 5.68 7.92 5.28 7.4 5.28C6.84 5.28 6.56 5.68 6.56 6.64V24.96C6.56 25.88 6.84 26.28 7.36 26.28C7.8 26.28 8.16 25.96 8.16 24.72V17.52C7.52 17.2 7.16 16.64 7.16 15.88C7.16 14.72 8.04 13.96 9.28 13.96H10.4C12.12 13.96 13 15.08 13 16.84V27.24C13 29.12 12.24 30 10.8 30C9.32 30 8.48 29.2 8.28 27.68L8.2 26.4C8.16 28.64 7.08 30.04 5.16 30.04ZM16.6172 30C14.9772 30 14.0572 29.04 14.2172 26.96L16.0572 5.64C16.2972 3 17.8972 1.64 20.1772 1.64C22.4572 1.64 24.0572 3 24.2972 5.64L26.1372 26.96C26.2972 29.04 25.3772 30 23.7772 30C22.1372 30 21.2972 29.12 21.2572 27.44L21.0972 23.6H19.2572L19.0972 27.44C19.0572 29.12 18.2572 30 16.6172 30ZM19.9772 6.08L19.4172 19.76H20.9372L20.3772 6.08C20.3772 5.76 20.2572 5.72 20.1772 5.72C20.0972 5.72 19.9772 5.76 19.9772 6.08ZM30.8381 30C29.2781 30 28.3981 29.12 28.3981 27.24V6.24H27.5981C26.0381 6.2 25.3581 5.4 25.3581 3.92C25.3581 2.44 26.1981 1.64 27.7581 1.64H33.8781C35.4381 1.64 36.3181 2.44 36.3181 3.92C36.3181 5.4 35.6381 6.24 34.0781 6.24H33.2381V27.24C33.2381 29.12 32.3981 30 30.8381 30ZM39.5544 30C37.9944 30 37.1144 29.12 37.1144 27.24V4.36C37.1144 2.48 37.9944 1.64 39.5544 1.64C41.1144 1.64 41.9944 2.48 41.9944 4.36V13.08H43.5544V4.36C43.5544 2.48 44.4344 1.64 45.9544 1.64C47.5144 1.64 48.3944 2.48 48.3944 4.36V27.24C48.3944 29.12 47.5544 30 45.9544 30C44.4344 30 43.5544 29.12 43.5544 27.24V16.92H41.9944V27.24C41.9944 29.12 41.1144 30 39.5544 30ZM59.1213 3.92C59.1213 5.4 58.4013 6.24 56.8413 6.24H55.0413V13.08H56.8413C58.4013 13.08 59.1213 14 59.1213 15.56C59.1213 17.08 58.4013 18.04 56.8413 18.04H55.0413V25.4H56.8413C58.4013 25.4 59.1213 26.2 59.1213 27.68C59.1213 29.16 58.4013 30 56.8413 30H52.9613C51.0813 30 50.1613 29.12 50.1613 27.24V4.36C50.1613 2.48 51.0813 1.64 52.9613 1.64H56.8413C58.4013 1.64 59.1213 2.4 59.1213 3.92ZM62.8356 30C61.2756 30 60.3956 29.12 60.3956 27.24V4.36C60.3956 2.48 61.3156 1.64 63.1956 1.64H66.3556C69.8356 1.64 71.6756 3.6 71.6756 7.64V12.04C71.6756 14.56 70.7956 16.04 69.1956 16.84C70.7556 17.68 71.6356 19.28 71.6356 21.88V27.24C71.6356 29.12 70.7556 30 69.2356 30C67.6756 30 66.7956 29.12 66.7956 27.24V20.04C66.7956 19.08 66.5956 18.64 65.9556 18.64H65.2756V27.24C65.2756 29.12 64.3956 30 62.8356 30ZM65.2756 15H65.9956C66.6356 15 66.8356 14.52 66.8356 13.6V6.84C66.8356 5.88 66.6356 5.48 65.8756 5.48H65.2756V15Z"/>
<path d="M79.1616 30.36C75.9616 30.36 73.4816 28.4 73.4816 24.32V4.36C73.4816 2.48 74.3616 1.64 75.9216 1.64C77.4816 1.64 78.3616 2.48 78.3616 4.36V25.28C78.3616 26.24 78.5616 26.64 79.1616 26.64C79.7216 26.64 79.9616 26.2 79.9616 25.28V4.36C79.9616 2.48 80.8416 1.64 82.3616 1.64C83.9216 1.64 84.8016 2.48 84.8016 4.36V24.32C84.8016 28.36 82.3216 30.36 79.1616 30.36Z"/>
</mask>
<path d="M5.16 30.04C2.68 30.04 1.72 28.2 1.72 24.84V8.2C1.72 3.56 4.2 1.6 7.4 1.6C10.52 1.6 13 3.56 13 7.6V9.56C13 11.4 12.12 12.28 10.6 12.28C9.04 12.28 8.16 11.4 8.16 9.56V6.64C8.16 5.68 7.92 5.28 7.4 5.28C6.84 5.28 6.56 5.68 6.56 6.64V24.96C6.56 25.88 6.84 26.28 7.36 26.28C7.8 26.28 8.16 25.96 8.16 24.72V17.52C7.52 17.2 7.16 16.64 7.16 15.88C7.16 14.72 8.04 13.96 9.28 13.96H10.4C12.12 13.96 13 15.08 13 16.84V27.24C13 29.12 12.24 30 10.8 30C9.32 30 8.48 29.2 8.28 27.68L8.2 26.4C8.16 28.64 7.08 30.04 5.16 30.04ZM16.6172 30C14.9772 30 14.0572 29.04 14.2172 26.96L16.0572 5.64C16.2972 3 17.8972 1.64 20.1772 1.64C22.4572 1.64 24.0572 3 24.2972 5.64L26.1372 26.96C26.2972 29.04 25.3772 30 23.7772 30C22.1372 30 21.2972 29.12 21.2572 27.44L21.0972 23.6H19.2572L19.0972 27.44C19.0572 29.12 18.2572 30 16.6172 30ZM19.9772 6.08L19.4172 19.76H20.9372L20.3772 6.08C20.3772 5.76 20.2572 5.72 20.1772 5.72C20.0972 5.72 19.9772 5.76 19.9772 6.08ZM30.8381 30C29.2781 30 28.3981 29.12 28.3981 27.24V6.24H27.5981C26.0381 6.2 25.3581 5.4 25.3581 3.92C25.3581 2.44 26.1981 1.64 27.7581 1.64H33.8781C35.4381 1.64 36.3181 2.44 36.3181 3.92C36.3181 5.4 35.6381 6.24 34.0781 6.24H33.2381V27.24C33.2381 29.12 32.3981 30 30.8381 30ZM39.5544 30C37.9944 30 37.1144 29.12 37.1144 27.24V4.36C37.1144 2.48 37.9944 1.64 39.5544 1.64C41.1144 1.64 41.9944 2.48 41.9944 4.36V13.08H43.5544V4.36C43.5544 2.48 44.4344 1.64 45.9544 1.64C47.5144 1.64 48.3944 2.48 48.3944 4.36V27.24C48.3944 29.12 47.5544 30 45.9544 30C44.4344 30 43.5544 29.12 43.5544 27.24V16.92H41.9944V27.24C41.9944 29.12 41.1144 30 39.5544 30ZM59.1213 3.92C59.1213 5.4 58.4013 6.24 56.8413 6.24H55.0413V13.08H56.8413C58.4013 13.08 59.1213 14 59.1213 15.56C59.1213 17.08 58.4013 18.04 56.8413 18.04H55.0413V25.4H56.8413C58.4013 25.4 59.1213 26.2 59.1213 27.68C59.1213 29.16 58.4013 30 56.8413 30H52.9613C51.0813 30 50.1613 29.12 50.1613 27.24V4.36C50.1613 2.48 51.0813 1.64 52.9613 1.64H56.8413C58.4013 1.64 59.1213 2.4 59.1213 3.92ZM62.8356 30C61.2756 30 60.3956 29.12 60.3956 27.24V4.36C60.3956 2.48 61.3156 1.64 63.1956 1.64H66.3556C69.8356 1.64 71.6756 3.6 71.6756 7.64V12.04C71.6756 14.56 70.7956 16.04 69.1956 16.84C70.7556 17.68 71.6356 19.28 71.6356 21.88V27.24C71.6356 29.12 70.7556 30 69.2356 30C67.6756 30 66.7956 29.12 66.7956 27.24V20.04C66.7956 19.08 66.5956 18.64 65.9556 18.64H65.2756V27.24C65.2756 29.12 64.3956 30 62.8356 30ZM65.2756 15H65.9956C66.6356 15 66.8356 14.52 66.8356 13.6V6.84C66.8356 5.88 66.6356 5.48 65.8756 5.48H65.2756V15Z" fill="white"/>
<path d="M79.1616 30.36C75.9616 30.36 73.4816 28.4 73.4816 24.32V4.36C73.4816 2.48 74.3616 1.64 75.9216 1.64C77.4816 1.64 78.3616 2.48 78.3616 4.36V25.28C78.3616 26.24 78.5616 26.64 79.1616 26.64C79.7216 26.64 79.9616 26.2 79.9616 25.28V4.36C79.9616 2.48 80.8416 1.64 82.3616 1.64C83.9216 1.64 84.8016 2.48 84.8016 4.36V24.32C84.8016 28.36 82.3216 30.36 79.1616 30.36Z" fill="#FD4DB7"/>
<path d="M8.16 17.52H9.16V16.902L8.60721 16.6256L8.16 17.52ZM8.28 27.68L7.28195 27.7424L7.28408 27.7765L7.28855 27.8105L8.28 27.68ZM8.2 26.4L9.19805 26.3376L7.20016 26.3821L8.2 26.4ZM5.16 29.04C4.21421 29.04 3.69997 28.7172 3.358 28.17C2.95908 27.5317 2.72 26.4629 2.72 24.84H0.72C0.72 26.5771 0.960923 28.1083 1.662 29.23C2.42003 30.4428 3.62579 31.04 5.16 31.04V29.04ZM2.72 24.84V8.2H0.72V24.84H2.72ZM2.72 8.2C2.72 6.05263 3.2918 4.68083 4.08382 3.84999C4.872 3.02317 6.00406 2.6 7.4 2.6V0.599998C5.59594 0.599998 3.888 1.15683 2.63618 2.47001C1.3882 3.77916 0.72 5.70737 0.72 8.2H2.72ZM7.4 2.6C8.75235 2.6 9.88111 3.02197 10.6682 3.79738C11.4496 4.56719 12 5.78963 12 7.6H14C14 5.37037 13.3104 3.59281 12.0718 2.37262C10.8389 1.15803 9.16765 0.599998 7.4 0.599998V2.6ZM12 7.6V9.56H14V7.6H12ZM12 9.56C12 10.3359 11.8136 10.7359 11.6308 10.9365C11.4624 11.1214 11.1666 11.28 10.6 11.28V13.28C11.5534 13.28 12.4576 12.9986 13.1092 12.2835C13.7464 11.5841 14 10.6241 14 9.56H12ZM10.6 11.28C10.0063 11.28 9.70082 11.1172 9.53012 10.9321C9.34641 10.7329 9.16 10.3361 9.16 9.56H7.16C7.16 10.6239 7.41359 11.5871 8.05988 12.2879C8.71919 13.0028 9.63373 13.28 10.6 13.28V11.28ZM9.16 9.56V6.64H7.16V9.56H9.16ZM9.16 6.64C9.16 6.11846 9.10246 5.56007 8.84446 5.10599C8.70324 4.85746 8.49859 4.63421 8.21938 4.48092C7.945 4.33028 7.65854 4.28 7.4 4.28V6.28C7.40146 6.28 7.34 6.27972 7.25687 6.23408C7.16891 6.18579 7.12176 6.12254 7.10554 6.09401C7.09487 6.07523 7.11205 6.0975 7.12977 6.1973C7.14708 6.29481 7.16 6.43795 7.16 6.64H9.16ZM7.4 4.28C6.83851 4.28 6.28014 4.50715 5.92634 5.06312C5.63114 5.52701 5.56 6.10169 5.56 6.64H7.56C7.56 6.44489 7.57455 6.30996 7.59253 6.22134C7.61071 6.13173 7.62713 6.1157 7.61366 6.13687C7.59444 6.16709 7.54977 6.2169 7.47971 6.25193C7.41618 6.28369 7.37826 6.28 7.4 6.28V4.28ZM5.56 6.64V24.96H7.56V6.64H5.56ZM5.56 24.96C5.56 25.4868 5.6338 26.044 5.91811 26.4968C6.25505 27.0334 6.79323 27.28 7.36 27.28V25.28C7.35912 25.28 7.40898 25.2804 7.47838 25.3166C7.5517 25.3549 7.59479 25.406 7.61189 25.4332C7.62425 25.4529 7.60866 25.4368 7.59131 25.3526C7.57418 25.2695 7.56 25.1426 7.56 24.96H5.56ZM7.36 27.28C7.87603 27.28 8.42373 27.0611 8.77604 26.4901C9.06848 26.0161 9.16 25.3987 9.16 24.72H7.16C7.16 24.9851 7.14046 25.1692 7.11606 25.2919C7.09136 25.4162 7.06681 25.4515 7.07396 25.4399C7.08662 25.4194 7.12975 25.3645 7.21183 25.3221C7.2886 25.2824 7.34871 25.28 7.36 25.28V27.28ZM9.16 24.72V17.52H7.16V24.72H9.16ZM8.60721 16.6256C8.30585 16.4749 8.16 16.2611 8.16 15.88H6.16C6.16 17.0189 6.73415 17.9251 7.71279 18.4144L8.60721 16.6256ZM8.16 15.88C8.16 15.5688 8.27022 15.3656 8.42121 15.2308C8.58253 15.0867 8.8617 14.96 9.28 14.96V12.96C8.45831 12.96 7.67747 13.2133 7.08879 13.7392C6.48978 14.2743 6.16 15.0312 6.16 15.88H8.16ZM9.28 14.96H10.4V12.96H9.28V14.96ZM10.4 14.96C11.0312 14.96 11.3819 15.1565 11.5906 15.3964C11.8179 15.6577 12 16.1137 12 16.84H14C14 15.8062 13.7421 14.8223 13.0994 14.0836C12.4381 13.3235 11.4888 12.96 10.4 12.96V14.96ZM12 16.84V27.24H14V16.84H12ZM12 27.24C12 28.0715 11.8276 28.493 11.6641 28.6941C11.5332 28.8552 11.3066 29 10.8 29V31C11.7334 31 12.6068 30.7048 13.2159 29.9559C13.7924 29.247 14 28.2885 14 27.24H12ZM10.8 29C10.2427 29 9.93006 28.8533 9.74045 28.6772C9.54257 28.4935 9.35172 28.1595 9.27145 27.5495L7.28855 27.8105C7.40828 28.7205 7.73743 29.5465 8.37955 30.1428C9.02994 30.7467 9.8773 31 10.8 31V29ZM9.27805 27.6176L9.19805 26.3376L7.20195 26.4624L7.28195 27.7424L9.27805 27.6176ZM7.20016 26.3821C7.1827 27.3596 6.93922 28.0253 6.61077 28.4271C6.30607 28.7998 5.85366 29.04 5.16 29.04V31.04C6.38634 31.04 7.43393 30.5802 8.15923 29.6929C8.86079 28.8347 9.1773 27.6804 9.19984 26.4179L7.20016 26.3821ZM14.2172 26.96L13.2208 26.874L13.2201 26.8833L14.2172 26.96ZM16.0572 5.64L15.0613 5.54946L15.0609 5.55401L16.0572 5.64ZM24.2972 5.64L25.2935 5.55401L25.2931 5.54946L24.2972 5.64ZM26.1372 26.96L27.1343 26.8833L27.1335 26.874L26.1372 26.96ZM21.2572 27.44L22.2569 27.4162L22.2567 27.4073L22.2563 27.3984L21.2572 27.44ZM21.0972 23.6L22.0963 23.5584L22.0564 22.6H21.0972V23.6ZM19.2572 23.6V22.6H18.298L18.2581 23.5584L19.2572 23.6ZM19.0972 27.44L18.0981 27.3984L18.0977 27.4073L18.0975 27.4162L19.0972 27.44ZM19.9772 6.08L20.9764 6.1209L20.9772 6.10046V6.08H19.9772ZM19.4172 19.76L18.418 19.7191L18.3754 20.76H19.4172V19.76ZM20.9372 19.76V20.76H21.979L21.9364 19.7191L20.9372 19.76ZM20.3772 6.08H19.3772V6.10046L19.378 6.1209L20.3772 6.08ZM16.6172 29C15.9882 29 15.6778 28.8215 15.5117 28.6213C15.3276 28.3995 15.1447 27.941 15.2142 27.0367L13.2201 26.8833C13.1297 28.059 13.3268 29.1205 13.9727 29.8987C14.6365 30.6985 15.6061 31 16.6172 31V29ZM15.2135 27.046L17.0535 5.72598L15.0609 5.55401L13.2209 26.874L15.2135 27.046ZM17.0531 5.73053C17.1563 4.59502 17.5392 3.84523 18.036 3.37969C18.5309 2.91587 19.2393 2.64 20.1772 2.64V0.639997C18.8351 0.639997 17.6034 1.04413 16.6684 1.9203C15.7352 2.79476 15.1981 4.04498 15.0613 5.54946L17.0531 5.73053ZM20.1772 2.64C21.1151 2.64 21.8234 2.91587 22.3184 3.37969C22.8152 3.84523 23.1981 4.59502 23.3013 5.73053L25.2931 5.54946C25.1563 4.04498 24.6192 2.79476 23.686 1.9203C22.7509 1.04413 21.5193 0.639997 20.1772 0.639997V2.64ZM23.3009 5.72598L25.1409 27.046L27.1335 26.874L25.2935 5.55401L23.3009 5.72598ZM25.1401 27.0367C25.2097 27.9406 25.0272 28.4025 24.8439 28.6259C24.6799 28.826 24.3788 29 23.7772 29V31C24.7756 31 25.7345 30.694 26.3905 29.8941C27.0272 29.1175 27.2247 28.0594 27.1342 26.8833L25.1401 27.0367ZM23.7772 29C23.1316 29 22.8071 28.8299 22.6326 28.6513C22.4501 28.4645 22.2733 28.1065 22.2569 27.4162L20.2575 27.4638C20.281 28.4535 20.5443 29.3755 21.2018 30.0487C21.8673 30.7301 22.7828 31 23.7772 31V29ZM22.2563 27.3984L22.0963 23.5584L20.0981 23.6416L20.2581 27.4816L22.2563 27.3984ZM21.0972 22.6H19.2572V24.6H21.0972V22.6ZM18.2581 23.5584L18.0981 27.3984L20.0963 27.4816L20.2563 23.6416L18.2581 23.5584ZM18.0975 27.4162C18.0808 28.1181 17.9083 28.4766 17.7334 28.6599C17.5709 28.8304 17.2624 29 16.6172 29V31C17.612 31 18.5235 30.7296 19.1809 30.0401C19.8261 29.3634 20.0736 28.4419 20.0969 27.4638L18.0975 27.4162ZM18.978 6.0391L18.418 19.7191L20.4164 19.8009L20.9764 6.1209L18.978 6.0391ZM19.4172 20.76H20.9372V18.76H19.4172V20.76ZM21.9364 19.7191L21.3764 6.0391L19.378 6.1209L19.938 19.8009L21.9364 19.7191ZM21.3772 6.08C21.3772 5.82982 21.3367 5.46607 21.0881 5.1553C20.7928 4.78622 20.3978 4.72 20.1772 4.72V6.72C20.1165 6.72 20.0072 6.71283 19.8797 6.66325C19.7431 6.61012 19.6196 6.52127 19.5263 6.40469C19.3577 6.19393 19.3772 6.01017 19.3772 6.08H21.3772ZM20.1772 4.72C19.9565 4.72 19.5616 4.78622 19.2663 5.15531C19.0177 5.46607 18.9772 5.82983 18.9772 6.08H20.9772C20.9772 6.01017 20.9967 6.19393 20.8281 6.40469C20.7348 6.52127 20.6113 6.61011 20.4746 6.66325C20.3471 6.71283 20.2379 6.72 20.1772 6.72V4.72ZM28.3981 6.24H29.3981V5.24H28.3981V6.24ZM27.5981 6.24L27.5725 7.23967L27.5853 7.24H27.5981V6.24ZM33.2381 6.24V5.24H32.2381V6.24H33.2381ZM30.8381 29C30.2447 29 29.9419 28.8375 29.772 28.6511C29.587 28.4483 29.3981 28.0411 29.3981 27.24H27.3981C27.3981 28.3188 27.6493 29.2917 28.2943 29.9989C28.9543 30.7225 29.8715 31 30.8381 31V29ZM29.3981 27.24V6.24H27.3981V27.24H29.3981ZM28.3981 5.24H27.5981V7.24H28.3981V5.24ZM27.6238 5.24033C27.0006 5.22435 26.7413 5.0628 26.6232 4.93668C26.4981 4.80295 26.3581 4.52389 26.3581 3.92H24.3581C24.3581 4.79611 24.5582 5.65704 25.163 6.30332C25.775 6.9572 26.6357 7.21565 27.5725 7.23967L27.6238 5.24033ZM26.3581 3.92C26.3581 3.3674 26.5108 3.09365 26.6621 2.94977C26.8217 2.79806 27.1386 2.64 27.7581 2.64V0.639997C26.8177 0.639997 25.9345 0.881934 25.2841 1.50022C24.6255 2.12635 24.3581 2.99259 24.3581 3.92H26.3581ZM27.7581 2.64H33.8781V0.639997H27.7581V2.64ZM33.8781 2.64C34.4978 2.64 34.8308 2.79835 35.003 2.95811C35.1633 3.10683 35.3181 3.38056 35.3181 3.92H37.3181C37.3181 2.97944 37.0329 2.11317 36.3632 1.49189C35.7054 0.881649 34.8185 0.639997 33.8781 0.639997V2.64ZM35.3181 3.92C35.3181 4.52588 35.1772 4.81728 35.0487 4.95633C34.9341 5.08038 34.6842 5.24 34.0781 5.24V7.24C35.0321 7.24 35.9022 6.97962 36.5176 6.31367C37.1191 5.66272 37.3181 4.79412 37.3181 3.92H35.3181ZM34.0781 5.24H33.2381V7.24H34.0781V5.24ZM32.2381 6.24V27.24H34.2381V6.24H32.2381ZM32.2381 27.24C32.2381 28.0518 32.0543 28.46 31.8762 28.6601C31.7176 28.8383 31.4308 29 30.8381 29V31C31.8055 31 32.7187 30.7217 33.3701 29.9899C34.0019 29.28 34.2381 28.3082 34.2381 27.24H32.2381ZM41.9944 13.08H40.9944V14.08H41.9944V13.08ZM43.5544 13.08V14.08H44.5544V13.08H43.5544ZM43.5544 16.92H44.5544V15.92H43.5544V16.92ZM41.9944 16.92V15.92H40.9944V16.92H41.9944ZM39.5544 29C38.961 29 38.6582 28.8375 38.4882 28.6511C38.3032 28.4483 38.1144 28.0411 38.1144 27.24H36.1144C36.1144 28.3188 36.3655 29.2917 37.0105 29.9989C37.6706 30.7225 38.5878 31 39.5544 31V29ZM38.1144 27.24V4.36H36.1144V27.24H38.1144ZM38.1144 4.36C38.1144 3.55841 38.3033 3.16727 38.4807 2.97702C38.646 2.79981 38.9482 2.64 39.5544 2.64V0.639997C38.6005 0.639997 37.6828 0.900186 37.018 1.61297C36.3655 2.31273 36.1144 3.28158 36.1144 4.36H38.1144ZM39.5544 2.64C40.1605 2.64 40.4628 2.79981 40.628 2.97702C40.8055 3.16727 40.9944 3.55841 40.9944 4.36H42.9944C42.9944 3.28158 42.7433 2.31273 42.0907 1.61297C41.426 0.900186 40.5082 0.639997 39.5544 0.639997V2.64ZM40.9944 4.36V13.08H42.9944V4.36H40.9944ZM41.9944 14.08H43.5544V12.08H41.9944V14.08ZM44.5544 13.08V4.36H42.5544V13.08H44.5544ZM44.5544 4.36C44.5544 3.55868 44.7432 3.16425 44.9198 2.97259C45.0827 2.79583 45.3752 2.64 45.9544 2.64V0.639997C45.0135 0.639997 44.1061 0.904162 43.4489 1.6174C42.8055 2.31575 42.5544 3.28132 42.5544 4.36H44.5544ZM45.9544 2.64C46.5605 2.64 46.8628 2.79981 47.028 2.97702C47.2055 3.16727 47.3944 3.55841 47.3944 4.36H49.3944C49.3944 3.28158 49.1433 2.31273 48.4907 1.61297C47.826 0.900186 46.9082 0.639997 45.9544 0.639997V2.64ZM47.3944 4.36V27.24H49.3944V4.36H47.3944ZM47.3944 27.24C47.3944 28.0521 47.2105 28.4569 47.0315 28.6556C46.8706 28.8341 46.5741 29 45.9544 29V31C46.9346 31 47.8582 30.7259 48.5173 29.9944C49.1582 29.2831 49.3944 28.3079 49.3944 27.24H47.3944ZM45.9544 29C45.3882 29 45.095 28.8418 44.9273 28.6556C44.7431 28.4513 44.5544 28.0409 44.5544 27.24H42.5544C42.5544 28.3191 42.8056 29.2887 43.4415 29.9944C44.0937 30.7182 45.0006 31 45.9544 31V29ZM44.5544 27.24V16.92H42.5544V27.24H44.5544ZM43.5544 15.92H41.9944V17.92H43.5544V15.92ZM40.9944 16.92V27.24H42.9944V16.92H40.9944ZM40.9944 27.24C40.9944 28.0411 40.8055 28.4483 40.6205 28.6511C40.4506 28.8375 40.1478 29 39.5544 29V31C40.521 31 41.4382 30.7225 42.0982 29.9989C42.7432 29.2917 42.9944 28.3188 42.9944 27.24H40.9944ZM55.0413 6.24V5.24H54.0413V6.24H55.0413ZM55.0413 13.08H54.0413V14.08H55.0413V13.08ZM55.0413 18.04V17.04H54.0413V18.04H55.0413ZM55.0413 25.4H54.0413V26.4H55.0413V25.4ZM58.1213 3.92C58.1213 4.51261 57.9767 4.80355 57.841 4.94649C57.7144 5.07992 57.4475 5.24 56.8413 5.24V7.24C57.795 7.24 58.6681 6.98008 59.2915 6.32351C59.9058 5.67645 60.1213 4.80739 60.1213 3.92H58.1213ZM56.8413 5.24H55.0413V7.24H56.8413V5.24ZM54.0413 6.24V13.08H56.0413V6.24H54.0413ZM55.0413 14.08H56.8413V12.08H55.0413V14.08ZM56.8413 14.08C57.4211 14.08 57.6819 14.2442 57.8164 14.3966C57.9708 14.5715 58.1213 14.9156 58.1213 15.56H60.1213C60.1213 14.6444 59.9117 13.7485 59.3161 13.0734C58.7006 12.3758 57.8214 12.08 56.8413 12.08V14.08ZM58.1213 15.56C58.1213 16.1786 57.9733 16.5284 57.8126 16.7127C57.6724 16.8735 57.4084 17.04 56.8413 17.04V19.04C57.8341 19.04 58.7101 18.7265 59.3199 18.0273C59.9092 17.3516 60.1213 16.4614 60.1213 15.56H58.1213ZM56.8413 17.04H55.0413V19.04H56.8413V17.04ZM54.0413 18.04V25.4H56.0413V18.04H54.0413ZM55.0413 26.4H56.8413V24.4H55.0413V26.4ZM56.8413 26.4C57.4606 26.4 57.7277 26.5572 57.8499 26.6827C57.9769 26.8131 58.1213 27.0874 58.1213 27.68H60.1213C60.1213 26.7926 59.9056 25.9269 59.2826 25.2873C58.6548 24.6428 57.7819 24.4 56.8413 24.4V26.4ZM58.1213 27.68C58.1213 28.2726 57.9767 28.5636 57.841 28.7065C57.7144 28.8399 57.4475 29 56.8413 29V31C57.795 31 58.6681 30.7401 59.2915 30.0835C59.9058 29.4364 60.1213 28.5674 60.1213 27.68H58.1213ZM56.8413 29H52.9613V31H56.8413V29ZM52.9613 29C52.1591 29 51.7609 28.8111 51.5556 28.6102C51.3546 28.4136 51.1613 28.0314 51.1613 27.24H49.1613C49.1613 28.3286 49.4279 29.3264 50.1569 30.0397C50.8816 30.7489 51.8834 31 52.9613 31V29ZM51.1613 27.24V4.36H49.1613V27.24H51.1613ZM51.1613 4.36C51.1613 3.56841 51.3545 3.20232 51.5476 3.01747C51.7497 2.82409 52.1481 2.64 52.9613 2.64V0.639997C51.8944 0.639997 50.8928 0.875904 50.1649 1.57253C49.428 2.27768 49.1613 3.27159 49.1613 4.36H51.1613ZM52.9613 2.64H56.8413V0.639997H52.9613V2.64ZM56.8413 2.64C57.4738 2.64 57.7376 2.794 57.8545 2.91241C57.9738 3.03332 58.1213 3.30073 58.1213 3.92H60.1213C60.1213 3.01927 59.9087 2.14668 59.278 1.50759C58.6449 0.865995 57.7687 0.639997 56.8413 0.639997V2.64ZM69.1956 16.84L68.7484 15.9456L67.0253 16.8071L68.7215 17.7205L69.1956 16.84ZM65.2756 18.64V17.64H64.2756V18.64H65.2756ZM65.2756 15H64.2756V16H65.2756V15ZM65.2756 5.48V4.48H64.2756V5.48H65.2756ZM62.8356 29C62.2422 29 61.9394 28.8375 61.7695 28.6511C61.5845 28.4483 61.3956 28.0411 61.3956 27.24H59.3956C59.3956 28.3188 59.6468 29.2917 60.2918 29.9989C60.9518 30.7225 61.869 31 62.8356 31V29ZM61.3956 27.24V4.36H59.3956V27.24H61.3956ZM61.3956 4.36C61.3956 3.56841 61.5889 3.20232 61.782 3.01747C61.9841 2.82409 62.3825 2.64 63.1956 2.64V0.639997C62.1287 0.639997 61.1272 0.875904 60.3992 1.57253C59.6624 2.27768 59.3956 3.27159 59.3956 4.36H61.3956ZM63.1956 2.64H66.3556V0.639997H63.1956V2.64ZM66.3556 2.64C67.909 2.64 68.9282 3.07227 69.5771 3.79376C70.2438 4.53491 70.6756 5.75252 70.6756 7.64H72.6756C72.6756 5.48748 72.1874 3.70509 71.0641 2.45624C69.9231 1.18773 68.2823 0.639997 66.3556 0.639997V2.64ZM70.6756 7.64V12.04H72.6756V7.64H70.6756ZM70.6756 12.04C70.6756 13.1887 70.4745 14.014 70.1539 14.6132C69.8408 15.1984 69.3817 15.6289 68.7484 15.9456L69.6428 17.7344C70.6095 17.2511 71.3905 16.5416 71.9174 15.5568C72.4367 14.586 72.6756 13.4113 72.6756 12.04H70.6756ZM68.7215 17.7205C69.8619 18.3345 70.6356 19.5246 70.6356 21.88H72.6356C72.6356 19.0354 71.6494 17.0255 69.6697 15.9595L68.7215 17.7205ZM70.6356 21.88V27.24H72.6356V21.88H70.6356ZM70.6356 27.24C70.6356 28.0409 70.4469 28.4513 70.2627 28.6556C70.095 28.8418 69.8018 29 69.2356 29V31C70.1894 31 71.0963 30.7182 71.7485 29.9944C72.3844 29.2887 72.6356 28.3191 72.6356 27.24H70.6356ZM69.2356 29C68.6422 29 68.3394 28.8375 68.1695 28.6511C67.9845 28.4483 67.7956 28.0411 67.7956 27.24H65.7956C65.7956 28.3188 66.0468 29.2917 66.6918 29.9989C67.3518 30.7225 68.2691 31 69.2356 31V29ZM67.7956 27.24V20.04H65.7956V27.24H67.7956ZM67.7956 20.04C67.7956 19.543 67.754 18.9617 67.4862 18.4879C67.336 18.2222 67.1156 17.9904 66.8163 17.8355C66.5279 17.6863 66.2269 17.64 65.9556 17.64V19.64C66.0044 19.64 65.9684 19.6487 65.8975 19.612C65.8156 19.5696 65.7652 19.5078 65.7451 19.4721C65.7327 19.4502 65.7501 19.4709 65.7674 19.5772C65.7843 19.6809 65.7956 19.83 65.7956 20.04H67.7956ZM65.9556 17.64H65.2756V19.64H65.9556V17.64ZM64.2756 18.64V27.24H66.2756V18.64H64.2756ZM64.2756 27.24C64.2756 28.0411 64.0868 28.4483 63.9018 28.6511C63.7318 28.8375 63.4291 29 62.8356 29V31C63.8022 31 64.7194 30.7225 65.3795 29.9989C66.0245 29.2917 66.2756 28.3188 66.2756 27.24H64.2756ZM65.2756 16H65.9956V14H65.2756V16ZM65.9956 16C66.2796 16 66.5864 15.9465 66.8761 15.7883C67.1727 15.6264 67.3862 15.3902 67.5307 15.1291C67.7918 14.6571 67.8356 14.0854 67.8356 13.6H65.8356C65.8356 13.798 65.8245 13.942 65.8077 14.0442C65.7904 14.1489 65.7725 14.1755 65.7806 14.1609C65.795 14.1348 65.8385 14.0761 65.9177 14.0329C65.9898 13.9935 66.0316 14 65.9956 14V16ZM67.8356 13.6V6.84H65.8356V13.6H67.8356ZM67.8356 6.84C67.8356 6.35602 67.7996 5.74127 67.4756 5.24968C67.0713 4.63632 66.4299 4.48 65.8756 4.48V6.48C65.9858 6.48 65.9978 6.49569 65.9607 6.48017C65.9391 6.47117 65.9088 6.45482 65.8767 6.42833C65.8445 6.40175 65.821 6.37358 65.8057 6.35031C65.7782 6.30871 65.7916 6.30542 65.8079 6.3973C65.8241 6.4884 65.8356 6.62826 65.8356 6.84H67.8356ZM65.8756 4.48H65.2756V6.48H65.8756V4.48ZM64.2756 5.48V15H66.2756V5.48H64.2756ZM79.1616 29.36C77.7632 29.36 76.6157 28.9344 75.8216 28.1559C75.0334 27.3832 74.4816 26.153 74.4816 24.32H72.4816C72.4816 26.567 73.1697 28.3568 74.4215 29.5841C75.6674 30.8056 77.36 31.36 79.1616 31.36V29.36ZM74.4816 24.32V4.36H72.4816V24.32H74.4816ZM74.4816 4.36C74.4816 3.55841 74.6705 3.16727 74.8479 2.97702C75.0132 2.79981 75.3154 2.64 75.9216 2.64V0.639997C74.9677 0.639997 74.05 0.900186 73.3852 1.61297C72.7327 2.31273 72.4816 3.28158 72.4816 4.36H74.4816ZM75.9216 2.64C76.5277 2.64 76.83 2.79981 76.9952 2.97702C77.1727 3.16727 77.3616 3.55841 77.3616 4.36H79.3616C79.3616 3.28158 79.1105 2.31273 78.4579 1.61297C77.7932 0.900186 76.8754 0.639997 75.9216 0.639997V2.64ZM77.3616 4.36V25.28H79.3616V4.36H77.3616ZM77.3616 25.28C77.3616 25.7756 77.4028 26.3488 77.6671 26.814C77.8163 27.0766 78.0349 27.3035 78.3298 27.4537C78.6125 27.5976 78.9045 27.64 79.1616 27.64V25.64C79.1186 25.64 79.1606 25.6324 79.2371 25.6713C79.3257 25.7165 79.3818 25.7834 79.406 25.826C79.4219 25.854 79.4059 25.8393 79.3892 25.7366C79.3729 25.6366 79.3616 25.4901 79.3616 25.28H77.3616ZM79.1616 27.64C79.4335 27.64 79.7266 27.5859 80.0043 27.4333C80.286 27.2786 80.4934 27.0545 80.6374 26.8053C80.9026 26.3462 80.9616 25.7874 80.9616 25.28H78.9616C78.9616 25.4701 78.9489 25.6065 78.9317 25.7005C78.9141 25.7964 78.8968 25.82 78.9057 25.8047C78.9197 25.7805 78.9621 25.7239 79.0413 25.6804C79.1166 25.6391 79.1697 25.64 79.1616 25.64V27.64ZM80.9616 25.28V4.36H78.9616V25.28H80.9616ZM80.9616 4.36C80.9616 3.55868 81.1504 3.16425 81.327 2.97259C81.4899 2.79583 81.7824 2.64 82.3616 2.64V0.639997C81.4207 0.639997 80.5133 0.904162 79.8561 1.6174C79.2127 2.31575 78.9616 3.28132 78.9616 4.36H80.9616ZM82.3616 2.64C82.9677 2.64 83.27 2.79981 83.4352 2.97702C83.6126 3.16727 83.8016 3.55841 83.8016 4.36H85.8016C85.8016 3.28158 85.5505 2.31273 84.8979 1.61297C84.2332 0.900186 83.3154 0.639997 82.3616 0.639997V2.64ZM83.8016 4.36V24.32H85.8016V4.36H83.8016ZM83.8016 24.32C83.8016 26.1307 83.2509 27.3642 82.463 28.1444C81.6701 28.9295 80.5316 29.36 79.1616 29.36V31.36C80.9515 31.36 82.633 30.7905 83.8702 29.5656C85.1122 28.3358 85.8016 26.5493 85.8016 24.32H83.8016Z" fill="black" mask="url(#path-1-outside-1_328_149)"/>
</g>
<defs>
<filter id="filter0_d_328_149" x="0.719971" y="0.599976" width="87.0815" height="32.76" filterUnits="userSpaceOnUse" color-interpolation-filters="sRGB">
<feFlood flood-opacity="0" result="BackgroundImageFix"/>
<feColorMatrix in="SourceAlpha" type="matrix" values="0 0 0 0 0 0 0 0 0 0 0 0 0 0 0 0 0 0 127 0" result="hardAlpha"/>
<feOffset dx="2" dy="2"/>
<feComposite in2="hardAlpha" operator="out"/>
<feColorMatrix type="matrix" values="0 0 0 0 0 0 0 0 0 0 0 0 0 0 0 0 0 0 1 0"/>
<feBlend mode="normal" in2="BackgroundImageFix" result="effect1_dropShadow_328_149"/>
<feBlend mode="normal" in="SourceGraphic" in2="effect1_dropShadow_328_149" result="shape"/>
</filter>
</defs>
</svg>
