<svg width="122" height="46" viewBox="0 0 122 46" fill="none" xmlns="http://www.w3.org/2000/svg">
<circle cx="2.76631" cy="23.9977" r="1.4746" transform="rotate(-15.5599 2.76631 23.9977)" fill="black"/>
<circle cx="14.0271" cy="19.3043" r="1.4746" transform="rotate(-15.5599 14.0271 19.3043)" fill="black"/>
<mask id="path-3-inside-1_2265_6577" fill="white">
<path d="M22.4046 26.7638C22.9327 26.696 23.4198 27.0692 23.4461 27.601C23.544 29.587 23.1579 31.5722 22.3149 33.3837C21.3359 35.4872 19.7806 37.2701 17.8295 38.5256C15.8784 39.7812 13.6113 40.4579 11.2912 40.4774C9.2933 40.4941 7.32653 40.0229 5.55961 39.1109C5.08648 38.8667 4.94858 38.2688 5.22915 37.8162V37.8162C5.50972 37.3637 6.10234 37.2288 6.579 37.466C8.03317 38.1898 9.64176 38.563 11.2751 38.5493C13.2307 38.5329 15.1415 37.9625 16.7861 36.9042C18.4307 35.8459 19.7416 34.3431 20.5668 32.5701C21.256 31.0893 21.5828 29.4706 21.5266 27.8473C21.5082 27.3151 21.8766 26.8317 22.4046 26.7638V26.7638Z"/>
</mask>
<path d="M22.4046 26.7638C22.9327 26.696 23.4198 27.0692 23.4461 27.601C23.544 29.587 23.1579 31.5722 22.3149 33.3837C21.3359 35.4872 19.7806 37.2701 17.8295 38.5256C15.8784 39.7812 13.6113 40.4579 11.2912 40.4774C9.2933 40.4941 7.32653 40.0229 5.55961 39.1109C5.08648 38.8667 4.94858 38.2688 5.22915 37.8162V37.8162C5.50972 37.3637 6.10234 37.2288 6.579 37.466C8.03317 38.1898 9.64176 38.563 11.2751 38.5493C13.2307 38.5329 15.1415 37.9625 16.7861 36.9042C18.4307 35.8459 19.7416 34.3431 20.5668 32.5701C21.256 31.0893 21.5828 29.4706 21.5266 27.8473C21.5082 27.3151 21.8766 26.8317 22.4046 26.7638V26.7638Z" fill="black"/>
<path d="M22.3149 33.3837L18.6884 31.6958L22.3149 33.3837ZM11.2912 40.4774L11.3248 44.4772L11.2912 40.4774ZM21.5266 27.8473L17.529 27.9857L21.5266 27.8473ZM6.579 37.466L4.79668 41.047L6.579 37.466ZM23.4461 27.601L19.4509 27.7979L23.4461 27.601ZM19.4509 27.7979C19.5169 29.1366 19.2567 30.4748 18.6884 31.6958L25.9413 35.0715C27.0592 32.6697 27.571 30.0373 27.4412 27.4041L19.4509 27.7979ZM18.6884 31.6958C18.0285 33.1138 16.9801 34.3156 15.6649 35.1619L19.9941 41.8894C22.5811 40.2246 24.6432 37.8606 25.9413 35.0715L18.6884 31.6958ZM15.6649 35.1619C14.3498 36.0082 12.8216 36.4644 11.2577 36.4775L11.3248 44.4772C14.4011 44.4514 17.407 43.5541 19.9941 41.8894L15.6649 35.1619ZM11.2577 36.4775C9.91096 36.4888 8.58519 36.1712 7.39417 35.5565L3.72504 42.6654C6.06787 43.8746 8.67565 44.4995 11.3248 44.4772L11.2577 36.4775ZM4.79668 41.047C6.81315 42.0507 9.04373 42.5682 11.3086 42.5492L11.2415 34.5495C10.2398 34.5579 9.2532 34.329 8.36132 33.8851L4.79668 41.047ZM11.3086 42.5492C14.0204 42.5264 16.6702 41.7355 18.9507 40.268L14.6216 33.5405C13.6129 34.1896 12.4409 34.5394 11.2415 34.5495L11.3086 42.5492ZM18.9507 40.268C21.2312 38.8004 23.049 36.7165 24.1933 34.2579L16.9403 30.8823C16.4342 31.9697 15.6302 32.8914 14.6216 33.5405L18.9507 40.268ZM24.1933 34.2579C25.149 32.2045 25.6022 29.9599 25.5242 27.7088L17.529 27.9857C17.5635 28.9813 17.363 29.9741 16.9403 30.8823L24.1933 34.2579ZM25.5242 27.7088C25.5691 29.0039 24.661 30.5068 22.9145 30.7312L21.8948 22.7964C19.0921 23.1566 17.4473 25.6264 17.529 27.9857L25.5242 27.7088ZM7.39417 35.5565C9.18073 36.4785 9.46398 38.5769 8.62872 39.9241L1.82958 35.7084C0.433184 37.9606 0.992224 41.2549 3.72504 42.6654L7.39417 35.5565ZM8.62872 39.9241C7.70079 41.4207 5.95676 41.6244 4.79668 41.047L8.36132 33.8851C6.24793 32.8332 3.31865 33.3068 1.82958 35.7084L8.62872 39.9241ZM27.4412 27.4041C27.2898 24.3325 24.5231 22.4587 21.8948 22.7964L22.9145 30.7312C21.3423 30.9332 19.5499 29.806 19.4509 27.7979L27.4412 27.4041Z" fill="black" mask="url(#path-3-inside-1_2265_6577)"/>
<g filter="url(#filter0_d_2265_6577)">
<mask id="path-5-outside-2_2265_6577" maskUnits="userSpaceOnUse" x="20.5625" y="8" width="86" height="32" fill="black">
<rect fill="white" x="20.5625" y="8" width="86" height="32"/>
<path d="M25.7225 38.04C23.2425 38.04 22.2825 36.2 22.2825 32.84V16.2C22.2825 11.56 24.7625 9.6 27.9625 9.6C31.0825 9.6 33.5625 11.56 33.5625 15.6V17.56C33.5625 19.4 32.6825 20.28 31.1625 20.28C29.6025 20.28 28.7225 19.4 28.7225 17.56V14.64C28.7225 13.68 28.4825 13.28 27.9625 13.28C27.4025 13.28 27.1225 13.68 27.1225 14.64V32.96C27.1225 33.88 27.4025 34.28 27.9225 34.28C28.3625 34.28 28.7225 33.96 28.7225 32.72V25.52C28.0825 25.2 27.7225 24.64 27.7225 23.88C27.7225 22.72 28.6025 21.96 29.8425 21.96H30.9625C32.6825 21.96 33.5625 23.08 33.5625 24.84V35.24C33.5625 37.12 32.8025 38 31.3625 38C29.8825 38 29.0425 37.2 28.8425 35.68L28.7625 34.4C28.7225 36.64 27.6425 38.04 25.7225 38.04ZM37.1797 38C35.5397 38 34.6197 37.04 34.7797 34.96L36.6197 13.64C36.8597 11 38.4597 9.64 40.7397 9.64C43.0197 9.64 44.6197 11 44.8597 13.64L46.6997 34.96C46.8597 37.04 45.9397 38 44.3397 38C42.6997 38 41.8597 37.12 41.8197 35.44L41.6597 31.6H39.8197L39.6597 35.44C39.6197 37.12 38.8197 38 37.1797 38ZM40.5397 14.08L39.9797 27.76H41.4997L40.9397 14.08C40.9397 13.76 40.8197 13.72 40.7397 13.72C40.6597 13.72 40.5397 13.76 40.5397 14.08ZM51.4006 38C49.8406 38 48.9606 37.12 48.9606 35.24V14.24H48.1606C46.6006 14.2 45.9206 13.4 45.9206 11.92C45.9206 10.44 46.7606 9.64 48.3206 9.64H54.4406C56.0006 9.64 56.8806 10.44 56.8806 11.92C56.8806 13.4 56.2006 14.24 54.6406 14.24H53.8006V35.24C53.8006 37.12 52.9606 38 51.4006 38ZM60.1169 38C58.5569 38 57.6769 37.12 57.6769 35.24V12.36C57.6769 10.48 58.5569 9.64 60.1169 9.64C61.6769 9.64 62.5569 10.48 62.5569 12.36V21.08H64.1169V12.36C64.1169 10.48 64.9969 9.64 66.5169 9.64C68.0769 9.64 68.9569 10.48 68.9569 12.36V35.24C68.9569 37.12 68.1169 38 66.5169 38C64.9969 38 64.1169 37.12 64.1169 35.24V24.92H62.5569V35.24C62.5569 37.12 61.6769 38 60.1169 38ZM79.6838 11.92C79.6838 13.4 78.9638 14.24 77.4038 14.24H75.6038V21.08H77.4038C78.9638 21.08 79.6838 22 79.6838 23.56C79.6838 25.08 78.9638 26.04 77.4038 26.04H75.6038V33.4H77.4038C78.9638 33.4 79.6838 34.2 79.6838 35.68C79.6838 37.16 78.9638 38 77.4038 38H73.5238C71.6438 38 70.7238 37.12 70.7238 35.24V12.36C70.7238 10.48 71.6438 9.64 73.5238 9.64H77.4038C78.9638 9.64 79.6838 10.4 79.6838 11.92ZM83.3981 38C81.8381 38 80.9581 37.12 80.9581 35.24V12.36C80.9581 10.48 81.8781 9.64 83.7581 9.64H86.9181C90.3981 9.64 92.2381 11.6 92.2381 15.64V20.04C92.2381 22.56 91.3581 24.04 89.7581 24.84C91.3181 25.68 92.1981 27.28 92.1981 29.88V35.24C92.1981 37.12 91.3181 38 89.7981 38C88.2381 38 87.3581 37.12 87.3581 35.24V28.04C87.3581 27.08 87.1581 26.64 86.5181 26.64H85.8381V35.24C85.8381 37.12 84.9581 38 83.3981 38ZM85.8381 23H86.5581C87.1981 23 87.3981 22.52 87.3981 21.6V14.84C87.3981 13.88 87.1981 13.48 86.4381 13.48H85.8381V23Z"/>
<path d="M99.7241 38.36C96.5241 38.36 94.0441 36.4 94.0441 32.32V12.36C94.0441 10.48 94.9241 9.64 96.4841 9.64C98.0441 9.64 98.9241 10.48 98.9241 12.36V33.28C98.9241 34.24 99.1241 34.64 99.7241 34.64C100.284 34.64 100.524 34.2 100.524 33.28V12.36C100.524 10.48 101.404 9.64 102.924 9.64C104.484 9.64 105.364 10.48 105.364 12.36V32.32C105.364 36.36 102.884 38.36 99.7241 38.36Z"/>
</mask>
<path d="M25.7225 38.04C23.2425 38.04 22.2825 36.2 22.2825 32.84V16.2C22.2825 11.56 24.7625 9.6 27.9625 9.6C31.0825 9.6 33.5625 11.56 33.5625 15.6V17.56C33.5625 19.4 32.6825 20.28 31.1625 20.28C29.6025 20.28 28.7225 19.4 28.7225 17.56V14.64C28.7225 13.68 28.4825 13.28 27.9625 13.28C27.4025 13.28 27.1225 13.68 27.1225 14.64V32.96C27.1225 33.88 27.4025 34.28 27.9225 34.28C28.3625 34.28 28.7225 33.96 28.7225 32.72V25.52C28.0825 25.2 27.7225 24.64 27.7225 23.88C27.7225 22.72 28.6025 21.96 29.8425 21.96H30.9625C32.6825 21.96 33.5625 23.08 33.5625 24.84V35.24C33.5625 37.12 32.8025 38 31.3625 38C29.8825 38 29.0425 37.2 28.8425 35.68L28.7625 34.4C28.7225 36.64 27.6425 38.04 25.7225 38.04ZM37.1797 38C35.5397 38 34.6197 37.04 34.7797 34.96L36.6197 13.64C36.8597 11 38.4597 9.64 40.7397 9.64C43.0197 9.64 44.6197 11 44.8597 13.64L46.6997 34.96C46.8597 37.04 45.9397 38 44.3397 38C42.6997 38 41.8597 37.12 41.8197 35.44L41.6597 31.6H39.8197L39.6597 35.44C39.6197 37.12 38.8197 38 37.1797 38ZM40.5397 14.08L39.9797 27.76H41.4997L40.9397 14.08C40.9397 13.76 40.8197 13.72 40.7397 13.72C40.6597 13.72 40.5397 13.76 40.5397 14.08ZM51.4006 38C49.8406 38 48.9606 37.12 48.9606 35.24V14.24H48.1606C46.6006 14.2 45.9206 13.4 45.9206 11.92C45.9206 10.44 46.7606 9.64 48.3206 9.64H54.4406C56.0006 9.64 56.8806 10.44 56.8806 11.92C56.8806 13.4 56.2006 14.24 54.6406 14.24H53.8006V35.24C53.8006 37.12 52.9606 38 51.4006 38ZM60.1169 38C58.5569 38 57.6769 37.12 57.6769 35.24V12.36C57.6769 10.48 58.5569 9.64 60.1169 9.64C61.6769 9.64 62.5569 10.48 62.5569 12.36V21.08H64.1169V12.36C64.1169 10.48 64.9969 9.64 66.5169 9.64C68.0769 9.64 68.9569 10.48 68.9569 12.36V35.24C68.9569 37.12 68.1169 38 66.5169 38C64.9969 38 64.1169 37.12 64.1169 35.24V24.92H62.5569V35.24C62.5569 37.12 61.6769 38 60.1169 38ZM79.6838 11.92C79.6838 13.4 78.9638 14.24 77.4038 14.24H75.6038V21.08H77.4038C78.9638 21.08 79.6838 22 79.6838 23.56C79.6838 25.08 78.9638 26.04 77.4038 26.04H75.6038V33.4H77.4038C78.9638 33.4 79.6838 34.2 79.6838 35.68C79.6838 37.16 78.9638 38 77.4038 38H73.5238C71.6438 38 70.7238 37.12 70.7238 35.24V12.36C70.7238 10.48 71.6438 9.64 73.5238 9.64H77.4038C78.9638 9.64 79.6838 10.4 79.6838 11.92ZM83.3981 38C81.8381 38 80.9581 37.12 80.9581 35.24V12.36C80.9581 10.48 81.8781 9.64 83.7581 9.64H86.9181C90.3981 9.64 92.2381 11.6 92.2381 15.64V20.04C92.2381 22.56 91.3581 24.04 89.7581 24.84C91.3181 25.68 92.1981 27.28 92.1981 29.88V35.24C92.1981 37.12 91.3181 38 89.7981 38C88.2381 38 87.3581 37.12 87.3581 35.24V28.04C87.3581 27.08 87.1581 26.64 86.5181 26.64H85.8381V35.24C85.8381 37.12 84.9581 38 83.3981 38ZM85.8381 23H86.5581C87.1981 23 87.3981 22.52 87.3981 21.6V14.84C87.3981 13.88 87.1981 13.48 86.4381 13.48H85.8381V23Z" fill="white"/>
<path d="M99.7241 38.36C96.5241 38.36 94.0441 36.4 94.0441 32.32V12.36C94.0441 10.48 94.9241 9.64 96.4841 9.64C98.0441 9.64 98.9241 10.48 98.9241 12.36V33.28C98.9241 34.24 99.1241 34.64 99.7241 34.64C100.284 34.64 100.524 34.2 100.524 33.28V12.36C100.524 10.48 101.404 9.64 102.924 9.64C104.484 9.64 105.364 10.48 105.364 12.36V32.32C105.364 36.36 102.884 38.36 99.7241 38.36Z" fill="#FD4EB7"/>
<path d="M28.7225 25.52H29.7225V24.902L29.1697 24.6256L28.7225 25.52ZM28.8425 35.68L27.8444 35.7424L27.8466 35.7765L27.851 35.8105L28.8425 35.68ZM28.7625 34.4L29.7606 34.3376L27.7627 34.3821L28.7625 34.4ZM25.7225 37.04C24.7767 37.04 24.2625 36.7172 23.9205 36.17C23.5216 35.5317 23.2825 34.4629 23.2825 32.84H21.2825C21.2825 34.5771 21.5234 36.1083 22.2245 37.23C22.9825 38.4428 24.1883 39.04 25.7225 39.04V37.04ZM23.2825 32.84V16.2H21.2825V32.84H23.2825ZM23.2825 16.2C23.2825 14.0526 23.8543 12.6808 24.6463 11.85C25.4345 11.0232 26.5666 10.6 27.9625 10.6V8.6C26.1584 8.6 24.4505 9.15683 23.1987 10.47C21.9507 11.7792 21.2825 13.7074 21.2825 16.2H23.2825ZM27.9625 10.6C29.3148 10.6 30.4436 11.022 31.2307 11.7974C32.0121 12.5672 32.5625 13.7896 32.5625 15.6H34.5625C34.5625 13.3704 33.8729 11.5928 32.6343 10.3726C31.4014 9.15803 29.7302 8.6 27.9625 8.6V10.6ZM32.5625 15.6V17.56H34.5625V15.6H32.5625ZM32.5625 17.56C32.5625 18.3359 32.3761 18.7359 32.1933 18.9365C32.0249 19.1214 31.7291 19.28 31.1625 19.28V21.28C32.1159 21.28 33.0201 20.9986 33.6717 20.2835C34.3089 19.5841 34.5625 18.6241 34.5625 17.56H32.5625ZM31.1625 19.28C30.5688 19.28 30.2633 19.1172 30.0926 18.9321C29.9089 18.7329 29.7225 18.3361 29.7225 17.56H27.7225C27.7225 18.6239 27.9761 19.5871 28.6224 20.2879C29.2817 21.0028 30.1962 21.28 31.1625 21.28V19.28ZM29.7225 17.56V14.64H27.7225V17.56H29.7225ZM29.7225 14.64C29.7225 14.1185 29.665 13.5601 29.407 13.106C29.2657 12.8575 29.0611 12.6342 28.7819 12.4809C28.5075 12.3303 28.221 12.28 27.9625 12.28V14.28C27.964 14.28 27.9025 14.2797 27.8194 14.2341C27.7314 14.1858 27.6843 14.1225 27.668 14.094C27.6574 14.0752 27.6746 14.0975 27.6923 14.1973C27.7096 14.2948 27.7225 14.4379 27.7225 14.64H29.7225ZM27.9625 12.28C27.401 12.28 26.8426 12.5072 26.4888 13.0631C26.1936 13.527 26.1225 14.1017 26.1225 14.64H28.1225C28.1225 14.4449 28.1371 14.31 28.155 14.2213C28.1732 14.1317 28.1896 14.1157 28.1762 14.1369C28.1569 14.1671 28.1123 14.2169 28.0422 14.2519C27.9787 14.2837 27.9408 14.28 27.9625 14.28V12.28ZM26.1225 14.64V32.96H28.1225V14.64H26.1225ZM26.1225 32.96C26.1225 33.4868 26.1963 34.044 26.4806 34.4968C26.8175 35.0334 27.3557 35.28 27.9225 35.28V33.28C27.9216 33.28 27.9715 33.2804 28.0409 33.3166C28.1142 33.3549 28.1573 33.406 28.1744 33.4332C28.1867 33.4529 28.1712 33.4368 28.1538 33.3526C28.1367 33.2695 28.1225 33.1426 28.1225 32.96H26.1225ZM27.9225 35.28C28.4385 35.28 28.9862 35.0611 29.3385 34.4901C29.631 34.0161 29.7225 33.3987 29.7225 32.72H27.7225C27.7225 32.9851 27.703 33.1692 27.6786 33.2919C27.6539 33.4162 27.6293 33.4515 27.6365 33.4399C27.6491 33.4194 27.6922 33.3645 27.7743 33.3221C27.8511 33.2824 27.9112 33.28 27.9225 33.28V35.28ZM29.7225 32.72V25.52H27.7225V32.72H29.7225ZM29.1697 24.6256C28.8683 24.4749 28.7225 24.2611 28.7225 23.88H26.7225C26.7225 25.0189 27.2967 25.9251 28.2753 26.4144L29.1697 24.6256ZM28.7225 23.88C28.7225 23.5688 28.8327 23.3656 28.9837 23.2308C29.145 23.0867 29.4242 22.96 29.8425 22.96V20.96C29.0208 20.96 28.24 21.2133 27.6513 21.7392C27.0523 22.2743 26.7225 23.0312 26.7225 23.88H28.7225ZM29.8425 22.96H30.9625V20.96H29.8425V22.96ZM30.9625 22.96C31.5937 22.96 31.9444 23.1565 32.1531 23.3964C32.3804 23.6577 32.5625 24.1137 32.5625 24.84H34.5625C34.5625 23.8062 34.3046 22.8223 33.6619 22.0836C33.0006 21.3235 32.0513 20.96 30.9625 20.96V22.96ZM32.5625 24.84V35.24H34.5625V24.84H32.5625ZM32.5625 35.24C32.5625 36.0715 32.3901 36.493 32.2266 36.6941C32.0957 36.8552 31.8691 37 31.3625 37V39C32.2959 39 33.1693 38.7048 33.7784 37.9559C34.3549 37.247 34.5625 36.2885 34.5625 35.24H32.5625ZM31.3625 37C30.8052 37 30.4926 36.8533 30.303 36.6772C30.1051 36.4935 29.9142 36.1595 29.834 35.5495L27.851 35.8105C27.9708 36.7205 28.2999 37.5465 28.942 38.1428C29.5924 38.7467 30.4398 39 31.3625 39V37ZM29.8406 35.6176L29.7606 34.3376L27.7644 34.4624L27.8444 35.7424L29.8406 35.6176ZM27.7627 34.3821C27.7452 35.3596 27.5017 36.0253 27.1733 36.4271C26.8686 36.7998 26.4162 37.04 25.7225 37.04V39.04C26.9488 39.04 27.9964 38.5802 28.7217 37.6929C29.4233 36.8347 29.7398 35.6804 29.7623 34.4179L27.7627 34.3821ZM34.7797 34.96L33.7833 34.874L33.7826 34.8833L34.7797 34.96ZM36.6197 13.64L35.6238 13.5495L35.6234 13.554L36.6197 13.64ZM44.8597 13.64L45.856 13.554L45.8556 13.5495L44.8597 13.64ZM46.6997 34.96L47.6968 34.8833L47.696 34.874L46.6997 34.96ZM41.8197 35.44L42.8194 35.4162L42.8192 35.4073L42.8188 35.3984L41.8197 35.44ZM41.6597 31.6L42.6588 31.5584L42.6189 30.6H41.6597V31.6ZM39.8197 31.6V30.6H38.8605L38.8206 31.5584L39.8197 31.6ZM39.6597 35.44L38.6606 35.3984L38.6602 35.4073L38.66 35.4162L39.6597 35.44ZM40.5397 14.08L41.5389 14.1209L41.5397 14.1005V14.08H40.5397ZM39.9797 27.76L38.9805 27.7191L38.9379 28.76H39.9797V27.76ZM41.4997 27.76V28.76H42.5415L42.4989 27.7191L41.4997 27.76ZM40.9397 14.08H39.9397V14.1005L39.9405 14.1209L40.9397 14.08ZM37.1797 37C36.5507 37 36.2403 36.8215 36.0742 36.6213C35.8901 36.3995 35.7072 35.941 35.7767 35.0367L33.7826 34.8833C33.6922 36.059 33.8893 37.1205 34.5352 37.8987C35.199 38.6985 36.1686 39 37.1797 39V37ZM35.776 35.046L37.616 13.726L35.6234 13.554L33.7834 34.874L35.776 35.046ZM37.6156 13.7305C37.7188 12.595 38.1017 11.8452 38.5985 11.3797C39.0934 10.9159 39.8018 10.64 40.7397 10.64V8.64C39.3976 8.64 38.1659 9.04413 37.2309 9.9203C36.2977 10.7948 35.7606 12.045 35.6238 13.5495L37.6156 13.7305ZM40.7397 10.64C41.6776 10.64 42.3859 10.9159 42.8809 11.3797C43.3777 11.8452 43.7606 12.595 43.8638 13.7305L45.8556 13.5495C45.7188 12.045 45.1817 10.7948 44.2485 9.9203C43.3134 9.04413 42.0818 8.64 40.7397 8.64V10.64ZM43.8634 13.726L45.7034 35.046L47.696 34.874L45.856 13.554L43.8634 13.726ZM45.7026 35.0367C45.7722 35.9406 45.5897 36.4025 45.4064 36.6259C45.2424 36.826 44.9413 37 44.3397 37V39C45.3381 39 46.297 38.694 46.953 37.8941C47.5897 37.1175 47.7872 36.0594 47.6967 34.8833L45.7026 35.0367ZM44.3397 37C43.6941 37 43.3696 36.8299 43.1951 36.6513C43.0126 36.4645 42.8358 36.1065 42.8194 35.4162L40.82 35.4638C40.8435 36.4535 41.1068 37.3755 41.7643 38.0487C42.4298 38.7301 43.3453 39 44.3397 39V37ZM42.8188 35.3984L42.6588 31.5584L40.6606 31.6416L40.8206 35.4816L42.8188 35.3984ZM41.6597 30.6H39.8197V32.6H41.6597V30.6ZM38.8206 31.5584L38.6606 35.3984L40.6588 35.4816L40.8188 31.6416L38.8206 31.5584ZM38.66 35.4162C38.6433 36.1181 38.4708 36.4766 38.296 36.6599C38.1334 36.8304 37.8249 37 37.1797 37V39C38.1745 39 39.086 38.7296 39.7434 38.0401C40.3886 37.3634 40.6361 36.4419 40.6594 35.4638L38.66 35.4162ZM39.5405 14.0391L38.9805 27.7191L40.9789 27.8009L41.5389 14.1209L39.5405 14.0391ZM39.9797 28.76H41.4997V26.76H39.9797V28.76ZM42.4989 27.7191L41.9389 14.0391L39.9405 14.1209L40.5005 27.8009L42.4989 27.7191ZM41.9397 14.08C41.9397 13.8298 41.8992 13.4661 41.6506 13.1553C41.3553 12.7862 40.9603 12.72 40.7397 12.72V14.72C40.679 14.72 40.5697 14.7128 40.4422 14.6633C40.3056 14.6101 40.1821 14.5213 40.0888 14.4047C39.9202 14.1939 39.9397 14.0102 39.9397 14.08H41.9397ZM40.7397 12.72C40.519 12.72 40.1241 12.7862 39.8288 13.1553C39.5802 13.4661 39.5397 13.8298 39.5397 14.08H41.5397C41.5397 14.0102 41.5592 14.1939 41.3906 14.4047C41.2973 14.5213 41.1738 14.6101 41.0371 14.6633C40.9096 14.7128 40.8004 14.72 40.7397 14.72V12.72ZM48.9606 14.24H49.9606V13.24H48.9606V14.24ZM48.1606 14.24L48.135 15.2397L48.1478 15.24H48.1606V14.24ZM53.8006 14.24V13.24H52.8006V14.24H53.8006ZM51.4006 37C50.8072 37 50.5044 36.8375 50.3345 36.6511C50.1495 36.4483 49.9606 36.0412 49.9606 35.24H47.9606C47.9606 36.3188 48.2118 37.2917 48.8568 37.9989C49.5168 38.7225 50.434 39 51.4006 39V37ZM49.9606 35.24V14.24H47.9606V35.24H49.9606ZM48.9606 13.24H48.1606V15.24H48.9606V13.24ZM48.1863 13.2403C47.5631 13.2243 47.3038 13.0628 47.1857 12.9367C47.0606 12.803 46.9206 12.5239 46.9206 11.92H44.9206C44.9206 12.7961 45.1207 13.657 45.7255 14.3033C46.3375 14.9572 47.1982 15.2156 48.135 15.2397L48.1863 13.2403ZM46.9206 11.92C46.9206 11.3674 47.0733 11.0936 47.2246 10.9498C47.3842 10.7981 47.7011 10.64 48.3206 10.64V8.64C47.3802 8.64 46.497 8.88193 45.8466 9.50022C45.188 10.1263 44.9206 10.9926 44.9206 11.92H46.9206ZM48.3206 10.64H54.4406V8.64H48.3206V10.64ZM54.4406 10.64C55.0603 10.64 55.3933 10.7983 55.5655 10.9581C55.7258 11.1068 55.8806 11.3806 55.8806 11.92H57.8806C57.8806 10.9794 57.5954 10.1132 56.9257 9.49189C56.2679 8.88165 55.381 8.64 54.4406 8.64V10.64ZM55.8806 11.92C55.8806 12.5259 55.7397 12.8173 55.6112 12.9563C55.4966 13.0804 55.2467 13.24 54.6406 13.24V15.24C55.5946 15.24 56.4647 14.9796 57.0801 14.3137C57.6816 13.6627 57.8806 12.7941 57.8806 11.92H55.8806ZM54.6406 13.24H53.8006V15.24H54.6406V13.24ZM52.8006 14.24V35.24H54.8006V14.24H52.8006ZM52.8006 35.24C52.8006 36.0518 52.6168 36.46 52.4387 36.6601C52.2801 36.8383 51.9933 37 51.4006 37V39C52.368 39 53.2812 38.7217 53.9326 37.9899C54.5644 37.28 54.8006 36.3082 54.8006 35.24H52.8006ZM62.5569 21.08H61.5569V22.08H62.5569V21.08ZM64.1169 21.08V22.08H65.1169V21.08H64.1169ZM64.1169 24.92H65.1169V23.92H64.1169V24.92ZM62.5569 24.92V23.92H61.5569V24.92H62.5569ZM60.1169 37C59.5235 37 59.2207 36.8375 59.0507 36.6511C58.8657 36.4483 58.6769 36.0412 58.6769 35.24H56.6769C56.6769 36.3188 56.928 37.2917 57.573 37.9989C58.2331 38.7225 59.1503 39 60.1169 39V37ZM58.6769 35.24V12.36H56.6769V35.24H58.6769ZM58.6769 12.36C58.6769 11.5584 58.8658 11.1673 59.0432 10.977C59.2085 10.7998 59.5107 10.64 60.1169 10.64V8.64C59.163 8.64 58.2453 8.90019 57.5805 9.61297C56.928 10.3127 56.6769 11.2816 56.6769 12.36H58.6769ZM60.1169 10.64C60.723 10.64 61.0253 10.7998 61.1905 10.977C61.368 11.1673 61.5569 11.5584 61.5569 12.36H63.5569C63.5569 11.2816 63.3058 10.3127 62.6532 9.61297C61.9885 8.90019 61.0707 8.64 60.1169 8.64V10.64ZM61.5569 12.36V21.08H63.5569V12.36H61.5569ZM62.5569 22.08H64.1169V20.08H62.5569V22.08ZM65.1169 21.08V12.36H63.1169V21.08H65.1169ZM65.1169 12.36C65.1169 11.5587 65.3057 11.1642 65.4823 10.9726C65.6452 10.7958 65.9377 10.64 66.5169 10.64V8.64C65.576 8.64 64.6686 8.90416 64.0114 9.61741C63.368 10.3158 63.1169 11.2813 63.1169 12.36H65.1169ZM66.5169 10.64C67.123 10.64 67.4253 10.7998 67.5905 10.977C67.768 11.1673 67.9569 11.5584 67.9569 12.36H69.9569C69.9569 11.2816 69.7058 10.3127 69.0532 9.61297C68.3885 8.90019 67.4707 8.64 66.5169 8.64V10.64ZM67.9569 12.36V35.24H69.9569V12.36H67.9569ZM67.9569 35.24C67.9569 36.0521 67.773 36.4569 67.594 36.6556C67.4331 36.8341 67.1366 37 66.5169 37V39C67.4971 39 68.4207 38.7259 69.0798 37.9944C69.7207 37.2831 69.9569 36.3079 69.9569 35.24H67.9569ZM66.5169 37C65.9507 37 65.6575 36.8418 65.4898 36.6556C65.3056 36.4513 65.1169 36.0409 65.1169 35.24H63.1169C63.1169 36.3191 63.3681 37.2887 64.004 37.9944C64.6562 38.7182 65.5631 39 66.5169 39V37ZM65.1169 35.24V24.92H63.1169V35.24H65.1169ZM64.1169 23.92H62.5569V25.92H64.1169V23.92ZM61.5569 24.92V35.24H63.5569V24.92H61.5569ZM61.5569 35.24C61.5569 36.0412 61.368 36.4483 61.183 36.6511C61.0131 36.8375 60.7103 37 60.1169 37V39C61.0835 39 62.0007 38.7225 62.6607 37.9989C63.3057 37.2917 63.5569 36.3188 63.5569 35.24H61.5569ZM75.6038 14.24V13.24H74.6038V14.24H75.6038ZM75.6038 21.08H74.6038V22.08H75.6038V21.08ZM75.6038 26.04V25.04H74.6038V26.04H75.6038ZM75.6038 33.4H74.6038V34.4H75.6038V33.4ZM78.6838 11.92C78.6838 12.5126 78.5392 12.8036 78.4035 12.9465C78.2769 13.0799 78.01 13.24 77.4038 13.24V15.24C78.3575 15.24 79.2306 14.9801 79.854 14.3235C80.4683 13.6764 80.6838 12.8074 80.6838 11.92H78.6838ZM77.4038 13.24H75.6038V15.24H77.4038V13.24ZM74.6038 14.24V21.08H76.6038V14.24H74.6038ZM75.6038 22.08H77.4038V20.08H75.6038V22.08ZM77.4038 22.08C77.9836 22.08 78.2444 22.2442 78.3789 22.3966C78.5333 22.5715 78.6838 22.9156 78.6838 23.56H80.6838C80.6838 22.6444 80.4742 21.7485 79.8786 21.0734C79.2631 20.3758 78.3839 20.08 77.4038 20.08V22.08ZM78.6838 23.56C78.6838 24.1786 78.5358 24.5284 78.3751 24.7127C78.2349 24.8735 77.9709 25.04 77.4038 25.04V27.04C78.3966 27.04 79.2726 26.7265 79.8824 26.0273C80.4717 25.3516 80.6838 24.4614 80.6838 23.56H78.6838ZM77.4038 25.04H75.6038V27.04H77.4038V25.04ZM74.6038 26.04V33.4H76.6038V26.04H74.6038ZM75.6038 34.4H77.4038V32.4H75.6038V34.4ZM77.4038 34.4C78.0231 34.4 78.2902 34.5572 78.4124 34.6827C78.5394 34.8131 78.6838 35.0874 78.6838 35.68H80.6838C80.6838 34.7926 80.4681 33.9269 79.8451 33.2873C79.2173 32.6428 78.3444 32.4 77.4038 32.4V34.4ZM78.6838 35.68C78.6838 36.2726 78.5392 36.5636 78.4035 36.7065C78.2769 36.8399 78.01 37 77.4038 37V39C78.3575 39 79.2306 38.7401 79.854 38.0835C80.4683 37.4364 80.6838 36.5674 80.6838 35.68H78.6838ZM77.4038 37H73.5238V39H77.4038V37ZM73.5238 37C72.7216 37 72.3234 36.8111 72.1181 36.6102C71.9171 36.4136 71.7238 36.0314 71.7238 35.24H69.7238C69.7238 36.3286 69.9904 37.3264 70.7194 38.0398C71.4441 38.7489 72.4459 39 73.5238 39V37ZM71.7238 35.24V12.36H69.7238V35.24H71.7238ZM71.7238 12.36C71.7238 11.5684 71.917 11.2023 72.1101 11.0175C72.3122 10.8241 72.7106 10.64 73.5238 10.64V8.64C72.4569 8.64 71.4553 8.8759 70.7274 9.57253C69.9905 10.2777 69.7238 11.2716 69.7238 12.36H71.7238ZM73.5238 10.64H77.4038V8.64H73.5238V10.64ZM77.4038 10.64C78.0363 10.64 78.3001 10.794 78.417 10.9124C78.5363 11.0333 78.6838 11.3007 78.6838 11.92H80.6838C80.6838 11.0193 80.4712 10.1467 79.8405 9.50759C79.2074 8.866 78.3312 8.64 77.4038 8.64V10.64ZM89.7581 24.84L89.3109 23.9456L87.5878 24.8071L89.284 25.7205L89.7581 24.84ZM85.8381 26.64V25.64H84.8381V26.64H85.8381ZM85.8381 23H84.8381V24H85.8381V23ZM85.8381 13.48V12.48H84.8381V13.48H85.8381ZM83.3981 37C82.8047 37 82.5019 36.8375 82.332 36.6511C82.147 36.4483 81.9581 36.0412 81.9581 35.24H79.9581C79.9581 36.3188 80.2093 37.2917 80.8543 37.9989C81.5143 38.7225 82.4315 39 83.3981 39V37ZM81.9581 35.24V12.36H79.9581V35.24H81.9581ZM81.9581 12.36C81.9581 11.5684 82.1514 11.2023 82.3445 11.0175C82.5466 10.8241 82.945 10.64 83.7581 10.64V8.64C82.6912 8.64 81.6897 8.8759 80.9617 9.57253C80.2249 10.2777 79.9581 11.2716 79.9581 12.36H81.9581ZM83.7581 10.64H86.9181V8.64H83.7581V10.64ZM86.9181 10.64C88.4715 10.64 89.4907 11.0723 90.1396 11.7938C90.8063 12.5349 91.2381 13.7525 91.2381 15.64H93.2381C93.2381 13.4875 92.7499 11.7051 91.6266 10.4562C90.4856 9.18773 88.8448 8.64 86.9181 8.64V10.64ZM91.2381 15.64V20.04H93.2381V15.64H91.2381ZM91.2381 20.04C91.2381 21.1887 91.037 22.014 90.7164 22.6132C90.4033 23.1984 89.9442 23.6289 89.3109 23.9456L90.2053 25.7344C91.172 25.2511 91.953 24.5416 92.4799 23.5568C92.9992 22.586 93.2381 21.4113 93.2381 20.04H91.2381ZM89.284 25.7205C90.4244 26.3345 91.1981 27.5246 91.1981 29.88H93.1981C93.1981 27.0354 92.2119 25.0255 90.2322 23.9595L89.284 25.7205ZM91.1981 29.88V35.24H93.1981V29.88H91.1981ZM91.1981 35.24C91.1981 36.0409 91.0094 36.4513 90.8252 36.6556C90.6575 36.8418 90.3643 37 89.7981 37V39C90.7519 39 91.6588 38.7182 92.311 37.9944C92.9469 37.2887 93.1981 36.3191 93.1981 35.24H91.1981ZM89.7981 37C89.2047 37 88.9019 36.8375 88.732 36.6511C88.547 36.4483 88.3581 36.0412 88.3581 35.24H86.3581C86.3581 36.3188 86.6093 37.2917 87.2543 37.9989C87.9143 38.7225 88.8315 39 89.7981 39V37ZM88.3581 35.24V28.04H86.3581V35.24H88.3581ZM88.3581 28.04C88.3581 27.543 88.3165 26.9617 88.0487 26.4879C87.8985 26.2222 87.6781 25.9904 87.3788 25.8355C87.0904 25.6863 86.7894 25.64 86.5181 25.64V27.64C86.5669 27.64 86.5309 27.6487 86.46 27.612C86.3781 27.5696 86.3277 27.5078 86.3076 27.4721C86.2952 27.4502 86.3126 27.4709 86.3299 27.5772C86.3468 27.6809 86.3581 27.83 86.3581 28.04H88.3581ZM86.5181 25.64H85.8381V27.64H86.5181V25.64ZM84.8381 26.64V35.24H86.8381V26.64H84.8381ZM84.8381 35.24C84.8381 36.0412 84.6493 36.4483 84.4643 36.6511C84.2943 36.8375 83.9915 37 83.3981 37V39C84.3647 39 85.2819 38.7225 85.942 37.9989C86.587 37.2917 86.8381 36.3188 86.8381 35.24H84.8381ZM85.8381 24H86.5581V22H85.8381V24ZM86.5581 24C86.8421 24 87.1489 23.9465 87.4386 23.7883C87.7352 23.6264 87.9487 23.3902 88.0932 23.1291C88.3543 22.6571 88.3981 22.0854 88.3981 21.6H86.3981C86.3981 21.798 86.387 21.942 86.3702 22.0442C86.3529 22.1489 86.335 22.1755 86.3431 22.1609C86.3575 22.1348 86.401 22.0761 86.4802 22.0329C86.5523 21.9935 86.5941 22 86.5581 22V24ZM88.3981 21.6V14.84H86.3981V21.6H88.3981ZM88.3981 14.84C88.3981 14.356 88.3621 13.7413 88.0381 13.2497C87.6338 12.6363 86.9924 12.48 86.4381 12.48V14.48C86.5483 14.48 86.5603 14.4957 86.5232 14.4802C86.5016 14.4712 86.4713 14.4548 86.4392 14.4283C86.407 14.4017 86.3835 14.3736 86.3682 14.3503C86.3407 14.3087 86.3541 14.3054 86.3704 14.3973C86.3866 14.4884 86.3981 14.6283 86.3981 14.84H88.3981ZM86.4381 12.48H85.8381V14.48H86.4381V12.48ZM84.8381 13.48V23H86.8381V13.48H84.8381ZM99.7241 37.36C98.3257 37.36 97.1782 36.9344 96.3841 36.1559C95.5959 35.3832 95.0441 34.153 95.0441 32.32H93.0441C93.0441 34.567 93.7322 36.3568 94.984 37.5841C96.2299 38.8056 97.9225 39.36 99.7241 39.36V37.36ZM95.0441 32.32V12.36H93.0441V32.32H95.0441ZM95.0441 12.36C95.0441 11.5584 95.233 11.1673 95.4104 10.977C95.5757 10.7998 95.8779 10.64 96.4841 10.64V8.64C95.5302 8.64 94.6125 8.90019 93.9477 9.61297C93.2952 10.3127 93.0441 11.2816 93.0441 12.36H95.0441ZM96.4841 10.64C97.0902 10.64 97.3925 10.7998 97.5577 10.977C97.7352 11.1673 97.9241 11.5584 97.9241 12.36H99.9241C99.9241 11.2816 99.673 10.3127 99.0204 9.61297C98.3557 8.90019 97.4379 8.64 96.4841 8.64V10.64ZM97.9241 12.36V33.28H99.9241V12.36H97.9241ZM97.9241 33.28C97.9241 33.7756 97.9653 34.3488 98.2296 34.814C98.3788 35.0766 98.5974 35.3035 98.8923 35.4537C99.175 35.5976 99.467 35.64 99.7241 35.64V33.64C99.6811 33.64 99.7231 33.6324 99.7996 33.6713C99.8882 33.7165 99.9443 33.7834 99.9685 33.826C99.9844 33.854 99.9684 33.8393 99.9517 33.7366C99.9354 33.6366 99.9241 33.4901 99.9241 33.28H97.9241ZM99.7241 35.64C99.996 35.64 100.289 35.5859 100.567 35.4333C100.849 35.2786 101.056 35.0545 101.2 34.8053C101.465 34.3463 101.524 33.7874 101.524 33.28H99.5241C99.5241 33.4701 99.5114 33.6065 99.4942 33.7005C99.4766 33.7964 99.4593 33.82 99.4682 33.8047C99.4822 33.7805 99.5246 33.7239 99.6038 33.6804C99.6791 33.6391 99.7322 33.64 99.7241 33.64V35.64ZM101.524 33.28V12.36H99.5241V33.28H101.524ZM101.524 12.36C101.524 11.5587 101.713 11.1642 101.89 10.9726C102.052 10.7958 102.345 10.64 102.924 10.64V8.64C101.983 8.64 101.076 8.90416 100.419 9.61741C99.7752 10.3158 99.5241 11.2813 99.5241 12.36H101.524ZM102.924 10.64C103.53 10.64 103.832 10.7998 103.998 10.977C104.175 11.1673 104.364 11.5584 104.364 12.36H106.364C106.364 11.2816 106.113 10.3127 105.46 9.61297C104.796 8.90019 103.878 8.64 102.924 8.64V10.64ZM104.364 12.36V32.32H106.364V12.36H104.364ZM104.364 32.32C104.364 34.1307 103.813 35.3642 103.025 36.1444C102.233 36.9295 101.094 37.36 99.7241 37.36V39.36C101.514 39.36 103.196 38.7905 104.433 37.5656C105.675 36.3358 106.364 34.5493 106.364 32.32H104.364Z" fill="black" mask="url(#path-5-outside-2_2265_6577)"/>
</g>
<defs>
<filter id="filter0_d_2265_6577" x="21.2822" y="8.59961" width="87.082" height="32.7598" filterUnits="userSpaceOnUse" color-interpolation-filters="sRGB">
<feFlood flood-opacity="0" result="BackgroundImageFix"/>
<feColorMatrix in="SourceAlpha" type="matrix" values="0 0 0 0 0 0 0 0 0 0 0 0 0 0 0 0 0 0 127 0" result="hardAlpha"/>
<feOffset dx="2" dy="2"/>
<feComposite in2="hardAlpha" operator="out"/>
<feColorMatrix type="matrix" values="0 0 0 0 0 0 0 0 0 0 0 0 0 0 0 0 0 0 1 0"/>
<feBlend mode="normal" in2="BackgroundImageFix" result="effect1_dropShadow_2265_6577"/>
<feBlend mode="normal" in="SourceGraphic" in2="effect1_dropShadow_2265_6577" result="shape"/>
</filter>
</defs>
</svg>
